<?xml version="1.0" encoding="utf-8"?>
<!-- Generator: Adobe Illustrator 26.0.2, SVG Export Plug-In . SVG Version: 6.00 Build 0)  -->
<svg version="1.1" id="Layer_1" xmlns="http://www.w3.org/2000/svg" xmlns:xlink="http://www.w3.org/1999/xlink" x="0px" y="0px"
	 width="158.9px" height="156.3px" viewBox="0 0 158.9 156.3" style="enable-background:new 0 0 158.9 156.3;" xml:space="preserve"
	>
<style type="text/css">
	.st0{fill:#1F001D;}
	.st1{fill:#C6549E;}
	.st2{fill:url(#SVGID_1_);}
	.st3{fill:#F48131;}
	.st4{fill:url(#SVGID_00000049935573259780236820000004835903252510006952_);}
	.st5{fill:#27C2E9;}
</style>
<path class="st0" d="M83,44.8l72.8-20v100.3l-72.8,25V44.8z"/>
<path class="st1" d="M79.5,40.8v115.5l79.4-27.6V19.3L79.5,40.8z M83,44.8l72.8-20v100.3l-72.8,25V44.8z"/>
<path class="st1" d="M138,71.6c-0.6-0.2-1.3-0.1-1.9,0.1c-4.1,1.2-6.8,6.7-6.8,14.4c0,8.8,2.8,11.4,6.4,10.3
	c0.8-0.2,1.6-0.7,2.2-1.2L138,71.6L138,71.6z M123.4,88.3c0-11.2,4.9-21.3,12.9-23.7c0.5-0.2,1.1-0.3,1.7-0.4V51.8
	c0-0.2,0.1-0.5,0.3-0.6l5.2-1.5c0.3-0.1,0.3,0,0.3,0.3v43.2c0,1.3,0,2.9,0.2,4.6c0,0.3,0,0.4-0.2,0.6c-2.3,2.4-5.1,4.3-8.2,5.4
	C128.5,106.1,123.4,101.4,123.4,88.3L123.4,88.3z M112.1,84l9.3,23.2c0.2,0.3,0.1,0.8-0.2,0.8l-5.8,1.9c-0.4,0.1-0.5,0-0.7-0.4
	c-2.1-5.7-4.3-11.6-6.5-17.8h-0.1c-2,7.1-4.2,14.9-6.4,22c-0.2,0.4-0.3,0.7-0.6,0.7l-5.6,1.8c-0.3,0.1-0.4-0.3-0.2-0.6l9.3-28.6
	l-9-22.8c-0.2-0.3-0.1-0.6,0.2-0.8c0,0,0,0,0.1,0l5.9-1.7c0.3-0.1,0.5,0,0.6,0.4c2.1,5.8,4.3,11.5,6.3,17.4h0.1c2-7,4.1-14,6.1-21
	c0.2-0.4,0.3-0.7,0.6-0.8l5.3-1.5c0.3-0.1,0.4,0.2,0.2,0.7l-8.8,27L112.1,84z"/>
<radialGradient id="SVGID_1_" cx="-963.0458" cy="-74.8801" r="0.15" gradientTransform="matrix(545.67 0 0 -528.31 525535.8125 -39506.25)" gradientUnits="userSpaceOnUse">
	<stop  offset="0" style="stop-color:#3A2D22;stop-opacity:0.98"/>
	<stop  offset="1" style="stop-color:#0C0000"/>
</radialGradient>
<path class="st2" d="M3.5,24.9L76,44.8v105L3.5,125V24.9z"/>
<path class="st3" d="M3.5,24.9L76,44.8v105L3.5,125V24.9z M0.4,128.5l79.1,27.3v-115L0.4,19.4V128.5z M51.3,73.4
	c0-0.4,0.1-0.5,0.4-0.5l5.3,1.6c0.3,0.1,0.4,0.3,0.4,0.7v38.3c0,0.4-0.1,0.6-0.4,0.5l-5.2-1.7c-0.3-0.1-0.4-0.4-0.4-0.8L51.3,73.4
	L51.3,73.4z M50.9,62.4c0-3.1,1.5-4.5,3.4-3.9s3.4,3,3.4,5.9c0,3.2-1.4,4.5-3.5,3.9S50.9,65.6,50.9,62.4z M36,84.6
	C35.1,79,32.9,66.8,32.1,61H32c-0.7,5.4-2.4,14.3-3.8,21.2L36,84.6L36,84.6z M26.9,89.5l-2.5,13.4c-0.1,0.4-0.1,0.4-0.5,0.3
	l-4.7-1.5c-0.3-0.1-0.4-0.3-0.3-0.8L28,56.6c0.2-1.3,0.3-2.6,0.3-3.8c0-0.3,0.1-0.5,0.3-0.4l6.9,2c0.2,0.1,0.3,0.2,0.4,0.6
	l10.5,54.9c0.1,0.4,0,0.6-0.3,0.5l-5.5-1.8c-0.3-0.1-0.5-0.3-0.5-0.6l-2.7-15.3L26.9,89.5L26.9,89.5z"/>
<radialGradient id="SVGID_00000052824349936636063840000000488421605056513928_" cx="-806.6414" cy="-955.1672" r="5.000000e-02" gradientTransform="matrix(2291.6699 0 0 2218.75 1848609 2119286)" gradientUnits="userSpaceOnUse">
	<stop  offset="0" style="stop-color:#2E354D;stop-opacity:0.98"/>
	<stop  offset="1" style="stop-color:#000021"/>
</radialGradient>
<path style="fill:url(#SVGID_00000052824349936636063840000000488421605056513928_);" d="M78.6,1.6L152,19.5L80.1,38.7L6.7,19.2
	L78.6,1.6z"/>
<path class="st5" d="M78.6,1.6L152,19.5L80.1,38.7L6.7,19.2L78.6,1.6z M0,19.2l80,21.4l78.7-21.1L78.7,0L0,19.2z M100.4,21.1
	c-2-0.5-4-0.6-6-0.3c-1.2,0.3-1.4,0.7,0.3,2.1c2.8,2,2,3.1-1.6,4c-5.5,1.4-12.6,1.1-18.2-0.3c-2.9-0.8-4.8-1.6-5.4-2.2
	c-0.1-0.1,0-0.1,0.3-0.2l5-1.3c0.3-0.1,0.6-0.1,0.7,0c0.7,0.9,2.5,1.7,4.8,2.3c2.1,0.6,4.3,0.7,6.5,0.3c1.2-0.3,1.5-0.8-0.1-2.1
	c-2.5-1.8-2.1-2.9,1.7-3.9c5.7-1.2,11.5-1.1,17.2,0.3c1.8,0.4,3.5,1,5.2,1.8c0.1,0.1-0.1,0.2-0.3,0.3l-4.6,1.2
	c-0.3,0.1-0.6,0.1-0.8,0C103.5,22,102,21.3,100.4,21.1L100.4,21.1z M67.7,14.8c0.7,0.2,1.3,0.4,2.6,0.7c4.6,1.3,9.5,1.3,14.2,0.2
	c4.2-1.1,3.7-2.3-0.7-3.3c-1.3-0.3-2.6-0.6-3.2-0.8L67.7,14.8z M79.5,9c0.4,0,0.7,0,1.1,0.1c2.2,0.5,5.4,1.2,8.6,2.1
	c9.2,2.3,7.8,4.5,1.4,6.1c-8.5,2.2-18.3,1.5-25.7-0.4c-1.2-0.3-1.6-0.4-2.5-0.7l-13,3.3c-0.3,0.1-0.5,0.1-0.8,0l-5-1.3
	c-0.3-0.1-0.3-0.1,0-0.2L79.5,9L79.5,9z"/>
</svg>
