<svg xmlns="http://www.w3.org/2000/svg" viewBox="0 0 650.03 489.88"><defs><style>.a{fill:#012169;}.a,.b,.c{stroke:#000;stroke-miterlimit:10;stroke-width:5px;}.b{fill:#fff;}.c{fill:#c8102e;}</style></defs><path class="a" d="M0,0H640V480H0Z" transform="translate(7.53 4.95)"/><path class="b" d="M75,0,319,181,562,0h78V62L400,241,640,419v61H560L320,301,81,480H0V420L239,242,0,64V0Z" transform="translate(7.53 4.95)"/><path class="c" d="M424,281,640,440v40L369,281ZM240,301l6,35L54,480H0ZM640,0V3L391,191l2-44L590,0ZM0,0,239,176H179L0,42Z" transform="translate(7.53 4.95)"/><path class="b" d="M241,0V480H401V0ZM0,160V320H640V160Z" transform="translate(7.53 4.95)"/><path class="c" d="M0,193v96H640V193ZM273,0V480h96V0Z" transform="translate(7.53 4.95)"/></svg>